Coordinates
version=1
nRows=8
nColumns=33
inDegrees=yes

Units are S.I. units (second, meters, Newtons, ...)
Angles are in degrees.

endheader
time	ground_thorax_rot_x	ground_thorax_rot_y	ground_thorax_rot_z	ground_thorax_tx	ground_thorax_ty	ground_thorax_tz	clav_prot_r	clav_elev_r	scapula_abduction_r	scapula_elevation_r	scapula_upward_rot_r	scapula_winging_r	shoulder_elv_r	plane_of_elev_r	axial_rot_r	elbow_flexion_r	pro_sup_r	wrist_flex_r	wrist_dev_r	clav_prot_l	clav_elev_l	scapula_abduction_l	scapula_elevation_l	scapula_upward_rot_l	scapula_winging_l	shoulder_elv_l	plane_of_elev_l	axial_rot_l	elbow_flexion_l	pro_sup_l	wrist_flex_l	wrist_dev_l
      4.75000000	     35.64179637	     21.14885674	     26.44492552	   -127.75076513	    798.41921347	      6.59332738	     15.00863363	     37.73688227	     37.69299576	     45.00000000	    -45.00000000	   2077.49766020	   -468.29928916	    145.62071259	    179.99999979	    729.16885481	     40.94141440	     21.33569918	     15.26500993	     11.31719761	    -45.00000000	    -37.95084023	     45.00000000	    -44.49650104	  -2425.11946427	   1343.87386265	    136.25745097	   -177.84351340	   1447.79284476	     20.42265383	     13.45483404	    -19.99394998
      4.76000000	     35.17740922	     21.94574257	     27.65896752	   -122.13404935	    795.55074856	      6.41653451	     14.73083794	     37.53356258	     37.49321420	     45.00000000	    -45.00000000	   2077.84203212	   -468.67759353	    145.84162641	    179.99999979	    728.74868518	     41.21846827	     21.18089497	     15.47173388	     11.44551036	    -45.00000000	    -38.04445963	     45.00000000	    -44.61446658	  -2425.25894325	   1343.36174010	    136.31773248	   -178.20973281	   1447.62439899	     21.80669790	     13.50438699	    -19.91210685
      4.77000000	     34.87571523	     22.41334419	     28.64202623	   -116.57087368	    792.68968953	      6.21542531	     15.75526858	     37.98782262	     37.60425531	     45.00000000	    -45.00000000	   2078.19634619	   -469.09261578	    146.12392142	    179.99999979	    728.39370386	     41.59393955	     21.04516249	     15.54900725	     10.61620981	    -45.00000000	    -37.76646912	     45.00000000	    -44.66379470	  -2425.93303292	   1342.97190995	    136.88493935	   -178.82852167	   1447.50612059	     23.34754302	     13.23462220	    -19.94316725
      4.78000000	     34.24348228	     23.35871106	     29.92019969	   -111.10025652	    789.87323066	      5.99131401	     14.43226330	     37.47602010	     36.95035530	     45.00000000	    -45.00000000	   2078.59040651	   -469.36048193	    146.18833743	    179.99999979	    727.82256828	     41.94839984	     20.90159421	     15.87459775	     11.63334543	    -45.00000000	    -38.17827930	     45.00000000	    -45.00000000	  -2425.75687202	   1342.39865871	    136.33680594	   -178.20025674	   1446.89390094	     24.78931078	     13.73228605	    -19.78670658
      4.79000000	     33.89519801	     23.67707310	     30.95339471	   -105.75996458	    787.13881824	      5.74795643	     15.47365404	     37.94066630	     36.97092219	     45.00000000	    -45.00000000	   2078.81176198	   -469.75155076	    146.18041824	    179.99999979	    727.44049983	     42.31355159	     20.75755350	     15.90371513	     10.94290680	    -45.00000000	    -37.59936259	     45.00000000	    -45.00000000	  -2426.51450150	   1342.05783384	    137.09017241	   -178.76370412	   1446.73226999	     26.34057811	     13.41488926	    -19.85574672
      4.80000000	     33.42447152	     24.28652770	     32.01558913	   -100.58445147	    784.52365272	      5.48698452	     15.60136794	     38.00500391	     36.77098969	     45.00000000	    -45.00000000	   2079.19030071	   -470.13380705	    146.42525679	    179.99999979	    726.92224670	     42.72970181	     20.60256664	     16.01435716	     10.77161249	    -45.00000000	    -37.49960695	     45.00000000	    -45.00000000	  -2426.86477688	   1341.55975499	    137.26949404	   -178.79990452	   1446.28626637	     27.94567767	     13.41193412	    -19.84507852
      4.81000000	     32.90390313	     24.84614211	     33.12119529	    -95.59697526	    782.05794775	      5.21151759	     15.31460893	     37.90346720	     36.32669169	     45.00000000	    -45.00000000	   2079.45782872	   -470.41417652	    146.33523964	    179.99999979	    726.43386250	     43.13026276	     20.45660199	     16.16178318	     11.09716791	    -45.00000000	    -37.43147182	     45.00000000	    -45.00000000	  -2426.99705025	   1341.01031530	    137.28406414	   -178.58903676	   1445.70591156	     29.40177023	     13.53862862	    -19.79775211
      4.82000000	     32.36572658	     25.32382174	     34.19044107	    -90.82079684	    779.77046649	      4.92622185	     15.54916005	     37.99671455	     36.22374303	     45.00000000	    -45.00000000	   2079.82038201	   -470.83602056	    146.68999776	    179.99999979	    725.98414537	     43.61748989	     20.31257290	     16.20602605	     10.69969411	    -45.00000000	    -37.35643124	     45.00000000	    -45.00000000	  -2427.27216365	   1340.53715496	    137.59936310	   -178.86277092	   1445.33656387	     30.85364850	     13.43606903	    -19.79598865
